<svg width="126" height="126" viewBox="0 0 126 126" fill="none" xmlns="http://www.w3.org/2000/svg">
<mask id="mask0_178_911" style="mask-type:alpha" maskUnits="userSpaceOnUse" x="0" y="0" width="126" height="126">
<path d="M126 63C126 97.7939 97.7939 126 63 126C28.2061 126 0 97.7939 0 63C0 28.2061 28.2061 0 63 0C97.7939 0 126 28.2061 126 63Z" fill="#4DB6E2"/>
<path d="M126 63C126 97.7939 97.7939 126 63 126C28.2061 126 0 97.7939 0 63C0 28.2061 28.2061 0 63 0C97.7939 0 126 28.2061 126 63Z" fill="#4DB6E2"/>
</mask>
<g mask="url(#mask0_178_911)">
<path d="M126 63C126 97.7939 97.7939 126 63 126C28.2061 126 0 97.7939 0 63C0 28.2061 28.2061 0 63 0C97.7939 0 126 28.2061 126 63Z" fill="#F4A261"/>
<path d="M126 63C126 97.7939 97.7939 126 63 126C28.2061 126 0 97.7939 0 63C0 28.2061 28.2061 0 63 0C97.7939 0 126 28.2061 126 63Z" fill="#F4A261"/>
<path d="M1.54753 38.604C5.60136 30.5557 6.91676 22.5052 15.3974 14.4974C24.2167 7.12134 26.4338 7.23027 37.8887 1.58262C46.676 -2.36948 56.449 -3.13904 63 -3.0522C65.2733 -3.0449 67.1802 -2.98295 68.6505 -3.02324C74.4191 -3.01725 74.7645 -1.19615 82.5206 0.568928C90.2713 2.64602 94.6393 5.23956 100.03 9.64201C106.049 13.5071 119.278 30.0824 122.249 37.344C126.159 44.1725 126.561 53.347 126.506 58.5039C126.52 60.1442 126.414 61.4091 126.283 62.3928C126.227 62.8083 126.101 63 125.977 63C125.977 63 125.977 63 125.977 63C125.823 62.9997 125.673 62.7042 125.647 62.1773C125.523 59.637 125.062 55.8008 123.689 51.5352C120.832 43.7741 121.957 42.372 116.336 32.7103C110.092 23.4927 104.968 19.1152 94.6444 11.5272C83.7112 4.91276 80.012 5.60907 63 3.2104C62.7704 3.19066 62.5383 3.17147 62.3038 3.1529C44.1774 2.96565 42.2215 6.92538 28.1514 16.5535C13.7446 26.747 3.73618 48.0516 3.94438 58.9586C3.8736 60.2617 3.84557 61.5919 3.86663 63C3.93994 73.1453 7.14679 85.83 14.5979 96.9212C22.826 109.877 40.2279 119.84 56.8291 121.886C58.7785 122.172 60.8459 122.374 63 122.462C79.3342 123.826 98.2652 114.38 105.44 107.397C113.747 99.6967 115.596 97.1548 119.915 87.0938C122.258 81.2252 124.531 72.8429 125.51 65.4202C125.973 61.6849 126.552 62.5033 126.668 66.3512C126.759 72.0103 125.519 76.5117 125.435 79.4984C125.148 85.4771 124.769 88.3178 120.564 94.6006C116.205 100.694 115.315 104.447 112.204 107.673C108.631 110.272 109.744 111.78 90.4469 123.046C79.6267 128.428 70.2176 129.677 63 129.89C56.7241 130.032 51.9111 129.337 47.9914 128.548C39.3565 127.237 22.9619 118.566 13.6203 108.044C4.14631 99.6092 -4.98643 76.4899 -4.25644 63C-4.29827 61.2937 -4.28659 59.7899 -4.26096 58.4707C-3.58977 46.9003 -2.0889 46.9822 1.54753 38.604Z" fill="#F9F9F9"/>
</g>
<path d="M97 103.704C92.4756 107.604 87.4083 110.596 81.798 112.682C76.1878 114.768 70.3739 115.811 64.3565 115.811C59.7416 115.811 55.2851 115.198 50.9869 113.974C46.734 112.795 42.7299 111.118 38.9747 108.941C35.2646 106.719 31.8714 104.067 28.7948 100.984C25.7182 97.9003 23.0714 94.4997 20.8545 90.7816C18.6827 87.0182 16.9861 83.0054 15.7645 78.7432C14.5882 74.4357 14 69.9695 14 65.3446C14 60.7196 14.5882 56.2534 15.7645 51.9459C16.9861 47.6384 18.6827 43.6256 20.8545 39.9075C23.0714 36.1441 25.7182 32.7208 28.7948 29.6375C31.8714 26.5542 35.2646 23.9244 38.9747 21.7479C42.7299 19.5261 46.734 17.8258 50.9869 16.6469C55.2851 15.4227 59.7416 14.8105 64.3565 14.8105C70.3739 14.8105 76.1878 15.8534 81.798 17.9392C87.4083 19.9796 92.4756 22.9722 97 26.9169L86.6844 43.9203C83.834 40.837 80.4633 38.4792 76.5724 36.8469C72.6814 35.1692 68.6094 34.3304 64.3565 34.3304C60.0583 34.3304 56.0316 35.1466 52.2764 36.7789C48.5211 38.4112 45.2409 40.633 42.4358 43.4442C39.6307 46.2101 37.4137 49.4974 35.785 53.3062C34.1562 57.0696 33.3418 61.0824 33.3418 65.3446C33.3418 69.6067 34.1562 73.6195 35.785 77.3829C37.4137 81.101 39.6307 84.3656 42.4358 87.1769C45.2409 89.9881 48.5211 92.2099 52.2764 93.8422C56.0316 95.4745 60.0583 96.2907 64.3565 96.2907C68.6094 96.2907 72.6814 95.4745 76.5724 93.8422C80.4633 92.1645 83.834 89.7841 86.6844 86.7008L97 103.704Z" fill="white"/>
</svg>
